<svg xmlns="http://www.w3.org/2000/svg" viewBox="0 0 24 24" fill="currentColor">
  <path d="M19 0h-14C2.24 0 0 2.24 0 5v14c0 2.76 2.24 5 5 5h14c2.76 0 5-2.24 5-5V5c0-2.76-2.24-5-5-5zM7.12 20.45H3.56V9h3.56v11.45zM5.34 7.59c-1.14 0-2.06-.93-2.06-2.06 0-1.14.92-2.06 2.06-2.06 1.14 0 2.06.92 2.06 2.06 0 1.13-.92 2.06-2.06 2.06zM20.45 20.45h-3.56v-5.62c0-1.34-.03-3.07-1.87-3.07-1.88 0-2.17 1.46-2.17 2.97v5.72h-3.56V9h3.42v1.56h.05c.48-.91 1.64-1.87 3.38-1.87 3.61 0 4.28 2.38 4.28 5.48v6.28z"/>
</svg>
