<?xml version="1.0" encoding="UTF-8" standalone="no"?>
<svg xmlns="http://www.w3.org/2000/svg"
     xmlns:svg="http://www.w3.org/2000/svg"
     version="1.1"
     width="0.0666667in" height="0.06in"
     viewBox="0 0 20 18">
  <path id="Ruta importada"
        fill="none" stroke="black" stroke-width="1"
        d="M 9.98,0.00
           C 9.82,0.00 9.67,0.07 9.56,0.18
             9.45,0.29 9.39,0.44 9.39,0.60
             9.39,0.60 9.39,12.01 9.39,12.01
             9.39,12.17 9.46,12.33 9.57,12.44
             9.68,12.55 9.83,12.61 9.99,12.61
             10.15,12.61 10.31,12.55 10.42,12.44
             10.53,12.33 10.59,12.17 10.59,12.01
             10.59,12.01 10.59,0.60 10.59,0.60
             10.59,0.52 10.58,0.44 10.55,0.37
             10.52,0.29 10.47,0.23 10.41,0.17
             10.36,0.12 10.29,0.07 10.22,0.04
             10.14,0.01 10.06,-0.00 9.98,0.00
             9.98,0.00 9.98,0.00 9.98,0.00 Z
           M 19.07,3.42
           C 18.99,3.42 18.91,3.44 18.84,3.47
             18.84,3.47 13.69,5.77 13.69,5.77
             13.58,5.82 13.49,5.90 13.43,5.99
             13.37,6.09 13.33,6.20 13.33,6.32
             13.33,6.43 13.37,6.55 13.43,6.64
             13.49,6.74 13.58,6.82 13.69,6.87
             13.69,6.87 18.84,9.17 18.84,9.17
             18.92,9.21 19.00,9.23 19.09,9.23
             19.22,9.23 19.36,9.18 19.46,9.09
             19.57,9.01 19.64,8.89 19.67,8.75
             19.70,8.62 19.68,8.48 19.62,8.35
             19.56,8.23 19.45,8.13 19.33,8.08
             19.33,8.08 15.40,6.32 15.40,6.32
             15.40,6.32 19.33,4.57 19.33,4.57
             19.47,4.50 19.59,4.38 19.64,4.23
             19.70,4.08 19.70,3.92 19.63,3.77
             19.58,3.67 19.50,3.57 19.40,3.51
             19.30,3.45 19.19,3.42 19.07,3.42 Z
           M 0.34,7.60
           C 0.43,7.56 0.52,7.54 0.61,7.55
             0.61,7.55 0.61,7.55 0.61,7.55
             0.74,7.55 0.87,7.59 0.97,7.68
             1.07,7.76 1.15,7.87 1.18,8.00
             1.81,10.40 3.22,12.53 5.19,14.05
             7.16,15.57 9.57,16.40 12.06,16.40
             12.22,16.40 12.37,16.46 12.49,16.57
             12.60,16.69 12.66,16.84 12.66,17.00
             12.66,17.16 12.60,17.31 12.49,17.42
             12.37,17.54 12.22,17.60 12.06,17.60
             6.40,17.60 1.44,13.77 0.02,8.30
             -0.00,8.21 -0.01,8.11 0.01,8.02
             0.03,7.93 0.07,7.85 0.13,7.77
             0.19,7.70 0.26,7.64 0.34,7.60 Z" />
</svg>
