<?xml version="1.0" encoding="UTF-8" standalone="no"?>
<svg xmlns="http://www.w3.org/2000/svg"
     xmlns:svg="http://www.w3.org/2000/svg"
     version="1.1"
     width="0.0666667in" height="0.0666667in"
     viewBox="0 0 20 20">
  <path id="Ruta importada"
        fill="none" stroke="black" stroke-width="1"
        d="M 9.84,0.00
           C 4.40,0.00 0.00,4.40 0.00,9.84
             0.00,14.20 2.82,17.88 6.73,19.18
             7.22,19.27 7.41,18.97 7.41,18.71
             7.41,18.48 7.39,17.70 7.39,16.88
             4.92,17.34 4.28,16.28 4.08,15.72
             3.97,15.44 3.49,14.57 3.08,14.33
             2.73,14.15 2.24,13.69 3.06,13.68
             3.84,13.67 4.39,14.40 4.58,14.69
             5.46,16.18 6.88,15.76 7.44,15.50
             7.53,14.86 7.79,14.43 8.07,14.19
             5.88,13.94 3.59,13.09 3.59,9.33
             3.59,8.26 3.97,7.37 4.60,6.68
             4.50,6.43 4.16,5.43 4.70,4.07
             4.70,4.07 5.52,3.81 7.41,5.08
             8.19,4.86 9.03,4.75 9.87,4.75
             10.70,4.75 11.54,4.86 12.33,5.08
             14.21,3.80 15.03,4.07 15.03,4.07
             15.58,5.43 15.23,6.43 15.13,6.68
             15.76,7.37 16.14,8.24 16.14,9.33
             16.14,13.10 13.84,13.94 11.65,14.19
             12.01,14.49 12.32,15.08 12.32,16.01
             12.32,17.32 12.30,18.38 12.30,18.71
             12.30,18.97 12.49,19.28 12.98,19.18
             14.93,18.52 16.63,17.27 17.83,15.59
             19.04,13.92 19.69,11.91 19.69,9.84
             19.69,4.40 15.28,0.00 9.84,0.00 Z" />
</svg>
