<?xml version="1.0" encoding="UTF-8" standalone="no"?>
<svg xmlns="http://www.w3.org/2000/svg"
     xmlns:svg="http://www.w3.org/2000/svg"
     version="1.1"
     width="0.0666667in" height="0.0666667in"
     viewBox="0 0 20 20">
  <path id="Ruta importada"
        fill="none" stroke="black" stroke-width="1"
        d="M 4.27,2.64
           C 3.36,2.64 2.62,3.38 2.62,4.29
             2.62,5.21 3.36,5.95 4.27,5.95
             5.18,5.95 5.92,5.21 5.92,4.29
             5.92,3.38 5.18,2.64 4.27,2.64 Z
           M 2.84,7.20
           C 2.84,7.20 2.84,16.36 2.84,16.36
             2.84,16.36 5.69,16.36 5.69,16.36
             5.69,16.36 5.69,7.20 5.69,7.20
             5.69,7.20 2.84,7.20 2.84,7.20 Z
           M 7.48,7.20
           C 7.48,7.20 7.48,16.36 7.48,16.36
             7.48,16.36 10.33,16.36 10.33,16.36
             10.33,16.36 10.33,11.83 10.33,11.83
             10.33,10.66 10.53,9.47 12.03,9.47
             13.51,9.47 13.51,10.88 13.51,11.90
             13.51,11.90 13.51,16.36 13.51,16.36
             13.51,16.36 16.36,16.36 16.36,16.36
             16.36,16.36 16.36,11.34 16.36,11.34
             16.36,9.07 15.95,6.97 12.94,6.97
             11.53,6.97 10.61,7.77 10.25,8.45
             10.25,8.45 10.21,8.45 10.21,8.45
             10.21,8.45 10.21,7.20 10.21,7.20
             10.21,7.20 7.48,7.20 7.48,7.20 Z
           M 17.78,19.20
           C 17.78,19.20 1.42,19.20 1.42,19.20
             0.64,19.20 0.00,18.58 0.00,17.81
             0.00,17.81 0.00,1.38 0.00,1.38
             0.00,0.62 0.64,0.00 1.42,0.00
             1.42,0.00 17.78,0.00 17.78,0.00
             18.56,0.00 19.20,0.62 19.20,1.38
             19.20,1.38 19.20,17.81 19.20,17.81
             19.20,18.58 18.56,19.20 17.78,19.20 Z" />
</svg>
