<?xml version="1.0" encoding="UTF-8" standalone="no"?>
<svg xmlns="http://www.w3.org/2000/svg"
     xmlns:svg="http://www.w3.org/2000/svg"
     version="1.1"
     width="0.0633333in" height="0.0533333in"
     viewBox="0 0 19 16">
  <path id="Ruta importada"
        fill="none" stroke="black" stroke-width="1"
        d="M 18.62,1.80
           C 17.94,2.10 17.20,2.30 16.43,2.40
             17.23,1.92 17.83,1.17 18.11,0.28
             17.36,0.73 16.54,1.04 15.68,1.21
             15.11,0.59 14.35,0.19 13.52,0.05
             12.68,-0.09 11.83,0.06 11.09,0.45
             10.35,0.85 9.76,1.48 9.41,2.25
             9.06,3.02 8.98,3.88 9.17,4.70
             7.65,4.62 6.17,4.22 4.81,3.54
             3.45,2.85 2.26,1.88 1.30,0.70
             0.97,1.27 0.78,1.92 0.78,2.62
             0.78,3.25 0.93,3.87 1.23,4.43
             1.53,4.98 1.96,5.46 2.48,5.80
             1.87,5.79 1.28,5.62 0.75,5.33
             0.75,5.33 0.75,5.38 0.75,5.38
             0.75,6.26 1.05,7.11 1.61,7.80
             2.17,8.48 2.95,8.95 3.81,9.12
             3.25,9.27 2.66,9.30 2.09,9.19
             2.33,9.95 2.81,10.61 3.45,11.09
             4.09,11.56 4.86,11.83 5.66,11.84
             4.30,12.90 2.63,13.48 0.91,13.48
             0.61,13.48 0.30,13.46 0.00,13.42
             1.75,14.55 3.78,15.14 5.86,15.14
             12.89,15.14 16.73,9.32 16.73,4.27
             16.73,4.10 16.72,3.94 16.72,3.78
             17.46,3.23 18.11,2.57 18.62,1.80
             18.62,1.80 18.62,1.80 18.62,1.80 Z" />
</svg>
