<svg xmlns="http://www.w3.org/2000/svg" viewBox="0 0 24 24" fill="currentColor">
  <path d="M12 0C5.37 0 0 5.37 0 12c0 5.3 3.44 9.8 8.2 11.39.6.11.82-.26.82-.58 0-.29-.01-1.04-.02-2.04-3.34.73-4.04-1.61-4.04-1.61-.55-1.39-1.34-1.76-1.34-1.76-1.1-.75.08-.73.08-.73 1.22.09 1.86 1.26 1.86 1.26 1.08 1.85 2.83 1.32 3.52 1.01.11-.78.42-1.32.76-1.62-2.67-.3-5.47-1.33-5.47-5.91 0-1.31.47-2.38 1.24-3.22-.12-.3-.54-1.51.12-3.15 0 0 1.01-.32 3.3 1.23A11.5 11.5 0 0 1 12 6.8a11.5 11.5 0 0 1 3.01.41c2.29-1.55 3.3-1.23 3.3-1.23.66 1.64.24 2.85.12 3.15.77.84 1.24 1.91 1.24 3.22 0 4.59-2.81 5.61-5.49 5.91.43.37.82 1.1.82 2.22 0 1.6-.02 2.89-.02 3.29 0 .32.22.69.83.58C20.56 21.8 24 17.3 24 12 24 5.37 18.63 0 12 0z"/>
</svg>
